<svg class="icon" viewBox="0 0 1024 1024" xmlns="http://www.w3.org/2000/svg" width="32" height="32"><defs><style/></defs><path d="M891.996 199.86v624.28c0 14.842-8.482 18.66-19.084 8.056L571.798 531.084c-2.544-2.544-4.242-5.09-5.514-8.058V824.14c0 14.842-8.482 18.66-19.084 8.056L246.088 531.084c-2.544-2.544-4.242-5.09-5.514-8.058v287.542c0 14.844-12.298 27.142-27.142 27.142h-54.286c-14.844 0-27.142-12.298-27.142-27.142V213.432c0-14.844 12.298-27.142 27.142-27.142h54.286c14.844 0 27.142 12.298 27.142 27.142v287.542c1.272-2.968 2.968-5.514 5.514-8.058l301.114-301.114c10.602-10.602 19.084-6.786 19.084 8.058v301.114c1.272-2.968 2.968-5.514 5.514-8.058l301.112-301.114c10.602-10.602 19.084-6.786 19.084 8.058z"/></svg>